<svg xmlns="http://www.w3.org/2000/svg" width="16" height="16" viewBox="0 0 16 16">
  <g id="Group_3" data-name="Group 3" transform="translate(-188 -41)">
    <rect id="Rectangle_13" data-name="Rectangle 13" width="16" height="16" transform="translate(188 41)" fill="none"/>
    <path id="search_FILL0_wght400_GRAD0_opsz24" d="M134.756-824l-5.6-5.6a5.3,5.3,0,0,1-1.533.844,5.418,5.418,0,0,1-1.844.311,5.577,5.577,0,0,1-4.1-1.678,5.578,5.578,0,0,1-1.678-4.1,5.577,5.577,0,0,1,1.678-4.1,5.577,5.577,0,0,1,4.1-1.678,5.577,5.577,0,0,1,4.1,1.678,5.577,5.577,0,0,1,1.678,4.1,5.419,5.419,0,0,1-.311,1.844,5.3,5.3,0,0,1-.844,1.533l5.6,5.6Zm-8.978-6.222a3.857,3.857,0,0,0,2.833-1.167,3.857,3.857,0,0,0,1.167-2.833,3.858,3.858,0,0,0-1.167-2.833,3.858,3.858,0,0,0-2.833-1.167,3.858,3.858,0,0,0-2.833,1.167,3.858,3.858,0,0,0-1.167,2.833,3.857,3.857,0,0,0,1.167,2.833A3.857,3.857,0,0,0,125.778-830.222Z" transform="translate(68 881)" fill="#939393"/>
  </g>
</svg>
