<svg xmlns="http://www.w3.org/2000/svg" width="21" height="21" viewBox="0 0 21 21">
  <g id="Group_509" data-name="Group 509" transform="translate(-301 -3159)">
    <path id="play_circle_FILL0_wght400_GRAD0_opsz24" d="M87.875-864.775l7.35-4.725-7.35-4.725ZM90.5-859a10.225,10.225,0,0,1-4.1-.827,10.6,10.6,0,0,1-3.334-2.245,10.6,10.6,0,0,1-2.244-3.334A10.224,10.224,0,0,1,80-869.5a10.225,10.225,0,0,1,.827-4.1,10.605,10.605,0,0,1,2.244-3.334,10.606,10.606,0,0,1,3.334-2.244A10.225,10.225,0,0,1,90.5-880a10.225,10.225,0,0,1,4.1.827,10.606,10.606,0,0,1,3.334,2.244,10.606,10.606,0,0,1,2.244,3.334,10.225,10.225,0,0,1,.827,4.1,10.224,10.224,0,0,1-.827,4.1,10.6,10.6,0,0,1-2.244,3.334,10.6,10.6,0,0,1-3.334,2.245A10.225,10.225,0,0,1,90.5-859Zm0-2.1a8.107,8.107,0,0,0,5.959-2.441A8.107,8.107,0,0,0,98.9-869.5a8.107,8.107,0,0,0-2.441-5.959A8.107,8.107,0,0,0,90.5-877.9a8.107,8.107,0,0,0-5.959,2.441A8.107,8.107,0,0,0,82.1-869.5a8.107,8.107,0,0,0,2.441,5.959A8.107,8.107,0,0,0,90.5-861.1ZM90.5-869.5Z" transform="translate(221 4039)" fill="#fff"/>
  </g>
</svg>
