<svg xmlns="http://www.w3.org/2000/svg" width="16" height="16" viewBox="0 0 16 16">
  <g id="Group_522" data-name="Group 522" transform="translate(-1554 -63)">
    <rect id="Rectangle_163" data-name="Rectangle 163" width="16" height="16" transform="translate(1554 63)" fill="none"/>
    <path id="Path_2496" data-name="Path 2496" d="M-73.6,136.5c-1.9,0-2.14.008-2.886.042a5.286,5.286,0,0,0-1.7.313,3.4,3.4,0,0,0-1.241.78,3.356,3.356,0,0,0-.809,1.2,4.712,4.712,0,0,0-.325,1.636c-.032.719-.044.948-.044,2.783s.008,2.06.044,2.783a4.785,4.785,0,0,0,.325,1.636,3.257,3.257,0,0,0,.809,1.2,3.454,3.454,0,0,0,1.241.78,5.309,5.309,0,0,0,1.7.313c.745.034.983.042,2.886.042s2.136-.008,2.886-.042a5.337,5.337,0,0,0,1.7-.313,3.439,3.439,0,0,0,1.237-.78,3.357,3.357,0,0,0,.809-1.2,4.881,4.881,0,0,0,.325-1.636c.032-.719.044-.948.044-2.783s-.008-2.06-.044-2.783a4.881,4.881,0,0,0-.325-1.636,3.306,3.306,0,0,0-.809-1.2,3.472,3.472,0,0,0-1.241-.78,5.335,5.335,0,0,0-1.7-.313c-.745-.034-.983-.042-2.882-.042Zm-.626,1.215h.626c1.867,0,2.089.008,2.826.038a4.055,4.055,0,0,1,1.3.233,2.185,2.185,0,0,1,.8.5,2.092,2.092,0,0,1,.523.776,3.647,3.647,0,0,1,.242,1.254c.032.711.04.925.04,2.725s-.008,2.014-.04,2.725a3.67,3.67,0,0,1-.242,1.254,2.092,2.092,0,0,1-.523.776,2.153,2.153,0,0,1-.8.5,4.029,4.029,0,0,1-1.3.233c-.737.031-.959.038-2.826.038s-2.089-.008-2.826-.038a4.054,4.054,0,0,1-1.3-.233,2.185,2.185,0,0,1-.8-.5,2.092,2.092,0,0,1-.523-.776,3.648,3.648,0,0,1-.242-1.254c-.032-.711-.04-.925-.04-2.725s.008-2.014.04-2.725a3.67,3.67,0,0,1,.242-1.254,2.092,2.092,0,0,1,.523-.776,2.184,2.184,0,0,1,.8-.5,4.03,4.03,0,0,1,1.3-.233c.646-.031.9-.038,2.2-.038Zm4.36,1.12a.826.826,0,0,0-.84.81.826.826,0,0,0,.84.81.826.826,0,0,0,.84-.81.826.826,0,0,0-.84-.81Zm-3.734.948a3.528,3.528,0,0,0-3.591,3.463,3.528,3.528,0,0,0,3.591,3.463,3.528,3.528,0,0,0,3.591-3.463,3.526,3.526,0,0,0-3.591-3.463Zm0,1.215a2.289,2.289,0,0,1,2.331,2.247,2.289,2.289,0,0,1-2.331,2.247,2.289,2.289,0,0,1-2.331-2.247A2.289,2.289,0,0,1-73.6,141Z" transform="translate(1635.6 -72.5)" fill="#fff"/>
  </g>
</svg>
