<svg xmlns="http://www.w3.org/2000/svg" width="21" height="21" viewBox="0 0 21 21">
  <g id="Group_510" data-name="Group 510" transform="translate(-219 -3082)">
    <path id="Path_2488" data-name="Path 2488" d="M10.5,51.654a4.725,4.725,0,1,0,0-9.45,4.725,4.725,0,1,0,0,9.45m0-2.1a2.625,2.625,0,1,1,1.864-4.489A2.625,2.625,0,0,1,10.5,49.554M2.1,55.329a2.026,2.026,0,0,1-1.484-.616A2.026,2.026,0,0,1,0,53.229v-12.6a2.026,2.026,0,0,1,.616-1.484A2.026,2.026,0,0,1,2.1,38.529H5.407l1.943-2.1h6.3l1.943,2.1H18.9a2.1,2.1,0,0,1,2.1,2.1v12.6a2.1,2.1,0,0,1-2.1,2.1Zm0-2.1H18.9v-12.6H14.647l-1.916-2.1H8.269l-1.916,2.1H2.1Z" transform="translate(219 3046.571)" fill="#fff"/>
    <rect id="Rectangle_156" data-name="Rectangle 156" width="21" height="21" transform="translate(219 3082)" fill="none"/>
    <rect id="Rectangle_157" data-name="Rectangle 157" width="21" height="21" transform="translate(219 3082)" fill="none"/>
  </g>
</svg>
