<svg xmlns="http://www.w3.org/2000/svg" width="16" height="16" viewBox="0 0 16 16">
  <g id="Group_518" data-name="Group 518" transform="translate(-1605 -82)">
    <rect id="Rectangle_157" data-name="Rectangle 157" width="16" height="16" transform="translate(1605 82)" fill="none"/>
    <path id="Path_2489" data-name="Path 2489" d="M972.232,20.031H961.921a1.845,1.845,0,0,0-1.845,1.844v6.449a1.844,1.844,0,0,0,1.845,1.844h10.311a1.844,1.844,0,0,0,1.844-1.844V21.875a1.845,1.845,0,0,0-1.844-1.844m-3.5,5.514-2.867,1.433a.5.5,0,0,1-.72-.444V23.667a.5.5,0,0,1,.72-.445l2.867,1.433a.5.5,0,0,1,0,.889" transform="translate(645.924 64.969)" fill="#2a81ac"/>
  </g>
</svg>
